<svg xmlns="http://www.w3.org/2000/svg" style="display: none;">
    <symbol id="search-icon" viewBox="0 0 24 24">
        <path d="M21 21l-4.486-4.494L21 21zm-2-10.5a8.5 8.5 0 1 1-17 0 8.5 8.5 0 0 1 17 0z" 
              stroke="currentColor" stroke-width="2" stroke-linecap="round" stroke-linejoin="round" fill="none"/>
    </symbol>
    
    <symbol id="menu-icon" viewBox="0 0 24 24">
        <path d="M3 12h18M3 6h18M3 18h18" 
              stroke="currentColor" stroke-width="2" stroke-linecap="round" stroke-linejoin="round" fill="none"/>
    </symbol>
    
    <symbol id="close-icon" viewBox="0 0 24 24">
        <path d="M18 6L6 18M6 6l12 12" 
              stroke="currentColor" stroke-width="2" stroke-linecap="round" stroke-linejoin="round" fill="none"/>
    </symbol>
    
    <symbol id="user-icon" viewBox="0 0 24 24">
        <path d="M20 21v-2a4 4 0 0 0-4-4H8a4 4 0 0 0-4 4v2" 
              stroke="currentColor" stroke-width="2" stroke-linecap="round" stroke-linejoin="round" fill="none"/>
        <circle cx="12" cy="7" r="4" 
                stroke="currentColor" stroke-width="2" stroke-linecap="round" stroke-linejoin="round" fill="none"/>
    </symbol>
    
    <symbol id="email-icon" viewBox="0 0 24 24">
        <rect x="4" y="4" width="16" height="16" rx="2" 
              stroke="currentColor" stroke-width="2" stroke-linecap="round" stroke-linejoin="round" fill="none"/>
        <path d="m22 6-10 7L2 6" 
              stroke="currentColor" stroke-width="2" stroke-linecap="round" stroke-linejoin="round" fill="none"/>
    </symbol>
    
    <symbol id="password-icon" viewBox="0 0 24 24">
        <rect x="4" y="11" width="16" height="10" rx="2" 
              stroke="currentColor" stroke-width="2" stroke-linecap="round" stroke-linejoin="round" fill="none"/>
        <path d="M16 11V7a4 4 0 1 0-8 0v4" 
              stroke="currentColor" stroke-width="2" stroke-linecap="round" stroke-linejoin="round" fill="none"/>
        <path d="M12 15v2" stroke="currentColor" stroke-width="2" stroke-linecap="round" stroke-linejoin="round" fill="none"/>
    </symbol>
    
    <symbol id="eye-icon" viewBox="0 0 24 24">
        <path d="M1 12s4-8 11-8 11 8 11 8-4 8-11 8-11-8-11-8z" 
              stroke="currentColor" stroke-width="2" stroke-linecap="round" stroke-linejoin="round" fill="none"/>
        <circle cx="12" cy="12" r="3" 
                stroke="currentColor" stroke-width="2" stroke-linecap="round" stroke-linejoin="round" fill="none"/>
    </symbol>
    
    <symbol id="eye-off-icon" viewBox="0 0 24 24">
        <path d="M9.9 4.24A10 10 0 0 1 12 4c7 0 11 8 11 8a19 19 0 0 1-1.16 1.95M14.12 14.12a3 3 0 1 1-4.24-4.24m8.06 8.06A10 10 0 0 1 12 20c-7 0-11-8-11-8a19 19 0 0 1 5.06-5.94l11.88 11.88z" 
              stroke="currentColor" stroke-width="2" stroke-linecap="round" stroke-linejoin="round" fill="none"/>
        <path d="m1 1 22 22" stroke="currentColor" stroke-width="2" stroke-linecap="round" stroke-linejoin="round" fill="none"/>
    </symbol>
    
    <symbol id="star-icon" viewBox="0 0 24 24">
        <path d="m12 2 3.09 6.26L22 9.27l-5 4.87 1.18 6.88L12 17.77l-6.18 3.28L7 14.14 2 9.27l6.91-1.01L12 2z" 
              fill="currentColor" stroke="currentColor" stroke-width="2" stroke-linecap="round" stroke-linejoin="round"/>
    </symbol>
    
    <symbol id="calendar-icon" viewBox="0 0 24 24">
        <rect x="3" y="4" width="18" height="18" rx="2" 
              stroke="currentColor" stroke-width="2" stroke-linecap="round" stroke-linejoin="round" fill="none"/>
        <path d="M16 2v4M8 2v4M3 10h18" 
              stroke="currentColor" stroke-width="2" stroke-linecap="round" stroke-linejoin="round" fill="none"/>
    </symbol>
    
    <symbol id="clock-icon" viewBox="0 0 24 24">
        <circle cx="12" cy="12" r="10" 
                stroke="currentColor" stroke-width="2" stroke-linecap="round" stroke-linejoin="round" fill="none"/>
        <path d="M12 6v6l4 2" 
              stroke="currentColor" stroke-width="2" stroke-linecap="round" stroke-linejoin="round" fill="none"/>
    </symbol>
    
    <symbol id="play-icon" viewBox="0 0 24 24">
        <path d="m8 5 11 7-11 7V5z" 
              fill="currentColor" stroke="currentColor" stroke-width="2" stroke-linecap="round" stroke-linejoin="round"/>
    </symbol>
    
    <symbol id="heart-icon" viewBox="0 0 24 24">
        <path d="M20.84 4.61a5.5 5.5 0 0 0-7.78 0L12 5.67l-1.06-1.06a5.5 5.5 0 0 0-7.78 7.78l1.06 1.06L12 21.23l7.78-7.78 1.06-1.06a5.5 5.5 0 0 0 0-7.78z" 
              fill="currentColor" stroke="currentColor" stroke-width="2" stroke-linecap="round" stroke-linejoin="round"/>
    </symbol>
    
    <symbol id="anime-icon" viewBox="0 0 24 24">
        <path d="m12 2 2.5 6.5L21 9l-5 4.5 1.5 6.5L12 16.5 6.5 20 8 13.5 3 9l6.5-1L12 2z" 
              fill="currentColor" stroke="currentColor" stroke-width="2" stroke-linecap="round" stroke-linejoin="round"/>
    </symbol>
    
    <symbol id="movie-icon" viewBox="0 0 24 24">
        <rect x="2" y="4" width="20" height="16" rx="2" 
              stroke="currentColor" stroke-width="2" stroke-linecap="round" stroke-linejoin="round" fill="none"/>
        <path d="m10 8 6 4-6 4V8z" 
              fill="currentColor" stroke="currentColor" stroke-width="2" stroke-linecap="round" stroke-linejoin="round"/>
    </symbol>
    
    <symbol id="tv-icon" viewBox="0 0 24 24">
        <rect x="2" y="7" width="20" height="14" rx="2" 
              stroke="currentColor" stroke-width="2" stroke-linecap="round" stroke-linejoin="round" fill="none"/>
        <path d="m17 2-5 5-5-5" 
              stroke="currentColor" stroke-width="2" stroke-linecap="round" stroke-linejoin="round" fill="none"/>
    </symbol>
    
    <symbol id="info-icon" viewBox="0 0 24 24">
        <circle cx="12" cy="12" r="10" 
                stroke="currentColor" stroke-width="2" stroke-linecap="round" stroke-linejoin="round" fill="none"/>
        <path d="M12 16v-4m0-4h.01" 
              stroke="currentColor" stroke-width="2" stroke-linecap="round" stroke-linejoin="round" fill="none"/>
    </symbol>
    
    <symbol id="filter-icon" viewBox="0 0 24 24">
        <path d="M22 3H2l8 9.46V19l4 2v-9.54L22 3z" 
              stroke="currentColor" stroke-width="2" stroke-linecap="round" stroke-linejoin="round" fill="none"/>
    </symbol>
</svg>